<svg width="26" height="28" viewBox="0 0 26 28" fill="none" xmlns="http://www.w3.org/2000/svg">
<path d="M12.6097 24.7916C12.7641 24.7933 12.9151 24.7401 13.0405 24.6399C13.3557 24.4182 20.7534 18.8999 20.7534 12.1916C20.7534 9.79357 19.8954 7.49379 18.3681 5.79815C16.8409 4.1025 14.7695 3.1499 12.6097 3.1499C10.4498 3.1499 8.37841 4.1025 6.85116 5.79815C5.32391 7.49379 4.46592 9.79357 4.46592 12.1916C4.46592 18.8999 11.8215 24.4182 12.1788 24.6399C12.3042 24.7401 12.4552 24.7933 12.6097 24.7916ZM12.6097 4.95824C14.3441 4.95203 16.0098 5.71026 17.2412 7.06645C18.4725 8.42263 19.1688 10.2659 19.1772 12.1916C19.1772 17.1032 14.1438 21.5949 12.6097 22.8432C11.0755 21.5949 6.04212 17.1032 6.04212 12.1916C6.05047 10.2659 6.74675 8.42263 7.9781 7.06645C9.20946 5.71026 10.8752 4.95203 12.6097 4.95824Z" fill="#9E9E9E"/>
<path d="M12.6096 14.8749C13.1812 14.8749 13.7399 14.6868 14.2151 14.3342C14.6903 13.9817 15.0607 13.4806 15.2794 12.8944C15.4981 12.3081 15.5553 11.663 15.4438 11.0407C15.3323 10.4183 15.0571 9.84665 14.653 9.39795C14.2488 8.94926 13.7339 8.64369 13.1734 8.5199C12.6129 8.39611 12.0318 8.45964 11.5038 8.70247C10.9758 8.9453 10.5245 9.35652 10.2069 9.88413C9.88941 10.4117 9.71993 11.032 9.71993 11.6666C9.71993 12.5175 10.0244 13.3335 10.5663 13.9352C11.1082 14.5369 11.8432 14.8749 12.6096 14.8749ZM12.6096 10.2083C12.8694 10.2083 13.1234 10.2938 13.3394 10.454C13.5554 10.6143 13.7237 10.842 13.8232 11.1085C13.9226 11.375 13.9486 11.6682 13.8979 11.9511C13.8472 12.234 13.7221 12.4938 13.5384 12.6978C13.3547 12.9017 13.1207 13.0406 12.8659 13.0969C12.6111 13.1532 12.347 13.1243 12.107 13.0139C11.867 12.9035 11.6618 12.7166 11.5175 12.4768C11.3732 12.237 11.2961 11.955 11.2961 11.6666C11.2961 11.2798 11.4345 10.9089 11.6809 10.6354C11.9272 10.3619 12.2613 10.2083 12.6096 10.2083Z" fill="#9E9E9E"/>
</svg>
