<svg width="34" height="34" viewBox="0 0 34 34" fill="none" xmlns="http://www.w3.org/2000/svg">
<g clip-path="url(#clip0_149_144)">
<path d="M17 0C26.3888 0 34 7.61115 34 17C34 25.4852 27.7834 32.5181 19.6562 33.7935V21.9141H23.6174L24.3711 17H19.6562V13.811C19.6562 13.4501 19.7037 13.0915 19.8141 12.7602C20.0633 12.0117 20.6333 11.4018 21.7013 11.2152C21.9214 11.1767 22.1627 11.1563 22.4267 11.1563H24.5703V6.97266C24.5703 6.97266 22.6249 6.64063 20.7649 6.64063C16.8817 6.64063 14.3438 8.99406 14.3438 13.2547V17H10.0273V21.9141H14.3438V33.7935C6.21669 32.5181 0 25.4852 0 17C0 7.61115 7.61115 0 17 0Z" fill="#1877F2"/>
</g>
<defs>
<clipPath id="clip0_149_144">
<rect width="34" height="34" fill="white"/>
</clipPath>
</defs>
</svg>
