<svg width="37" height="37" viewBox="0 0 37 37" fill="none" xmlns="http://www.w3.org/2000/svg">
<circle cx="19" cy="19.6479" r="16" fill="#D3CECE"/>
<g clip-path="url(#clip0_195_28)">
<path d="M14.604 18.324C14.604 20.5728 16.4271 22.3959 18.676 22.3959C20.9249 22.3959 22.748 20.5728 22.748 18.324C22.748 16.0751 20.9249 14.252 18.676 14.252C16.4271 14.252 14.604 16.0751 14.604 18.324Z" fill="url(#paint0_linear_195_28)"/>
<path fill-rule="evenodd" clip-rule="evenodd" d="M23.6122 8.38032C22.3241 8.32154 21.9377 8.30913 18.676 8.30913C15.4141 8.30913 15.0278 8.32154 13.7396 8.38032C12.5486 8.43468 11.9018 8.63366 11.4713 8.80092C10.9011 9.02252 10.4942 9.28727 10.0666 9.71473C9.63918 10.1422 9.37443 10.5492 9.15288 11.1193C8.98557 11.5498 8.78659 12.1966 8.73224 13.3876C8.67345 14.6758 8.66104 15.0622 8.66104 18.324C8.66104 21.5858 8.67345 21.9721 8.73224 23.2603C8.78659 24.4513 8.98557 25.0981 9.15288 25.5286C9.37443 26.0988 9.63918 26.5057 10.0666 26.9332C10.4942 27.3607 10.9011 27.6254 11.4713 27.847C11.9018 28.0143 12.5486 28.2133 13.7396 28.2676C15.0276 28.3264 15.4139 28.3388 18.676 28.3388C21.938 28.3388 22.3243 28.3264 23.6122 28.2676C24.8032 28.2133 25.4501 28.0143 25.8805 27.847C26.4507 27.6254 26.8577 27.3607 27.2851 26.9332C27.7126 26.5057 27.9773 26.0988 28.1989 25.5286C28.3662 25.0981 28.5652 24.4513 28.6196 23.2603C28.6783 21.9721 28.6908 21.5858 28.6908 18.324C28.6908 15.0622 28.6783 14.6758 28.6196 13.3876C28.5652 12.1966 28.3662 11.5498 28.1989 11.1193C27.9773 10.5492 27.7126 10.1422 27.2851 9.71473C26.8577 9.28727 26.4507 9.02252 25.8805 8.80092C25.4501 8.63366 24.8032 8.43468 23.6122 8.38032ZM12.4029 18.324C12.4029 14.8594 15.2115 12.0509 18.676 12.0509C22.1405 12.0509 24.949 14.8594 24.949 18.324C24.949 21.7885 22.1405 24.597 18.676 24.597C15.2115 24.597 12.4029 21.7885 12.4029 18.324ZM26.6627 11.803C26.6627 12.6127 26.0064 13.269 25.1968 13.269C24.3872 13.269 23.7309 12.6127 23.7309 11.803C23.7309 10.9934 24.3872 10.3372 25.1968 10.3372C26.0064 10.3372 26.6627 10.9934 26.6627 11.803Z" fill="url(#paint1_linear_195_28)"/>
<path fill-rule="evenodd" clip-rule="evenodd" d="M37 18.324C37 28.4441 28.7961 36.648 18.676 36.648C8.5559 36.648 0.351959 28.4441 0.351959 18.324C0.351959 8.20394 8.5559 0 18.676 0C28.7961 0 37 8.20394 37 18.324ZM13.6393 6.18154C14.9423 6.12208 15.3583 6.10801 18.676 6.10801C21.9936 6.10801 22.4096 6.12208 23.7125 6.18154C25.0128 6.24086 25.9008 6.44734 26.6778 6.74935C27.4811 7.06152 28.1624 7.47925 28.8416 8.15839C29.5207 8.83747 29.9384 9.51875 30.2506 10.322C30.5525 11.0991 30.7591 11.9871 30.8184 13.2873C30.8778 14.5903 30.8919 15.0063 30.8919 18.324C30.8919 21.6416 30.8778 22.0576 30.8184 23.3606C30.7591 24.6608 30.5525 25.5488 30.2506 26.3259C29.9384 27.1292 29.5207 27.8104 28.8416 28.4896C28.1624 29.1687 27.4811 29.5864 26.6778 29.8986C25.9008 30.2006 25.0128 30.4071 23.7125 30.4664C22.4096 30.5258 21.9936 30.5399 18.676 30.5399C15.3583 30.5399 14.9423 30.5258 13.6393 30.4664C12.3391 30.4071 11.451 30.2006 10.674 29.8986C9.87066 29.5864 9.18938 29.1687 8.5103 28.4896C7.83116 27.8104 7.41343 27.1292 7.10126 26.3259C6.79925 25.5488 6.59277 24.6608 6.53345 23.3606C6.474 22.0576 6.45997 21.6416 6.45997 18.324C6.45997 15.0063 6.474 14.5903 6.53345 13.2873C6.59277 11.9871 6.79925 11.0991 7.10126 10.322C7.41343 9.51875 7.83116 8.83747 8.5103 8.15839C9.18938 7.47925 9.87066 7.06152 10.674 6.74935C11.451 6.44734 12.3391 6.24086 13.6393 6.18154Z" fill="url(#paint2_linear_195_28)"/>
</g>
<defs>
<linearGradient id="paint0_linear_195_28" x1="21.8835" y1="-1.94181" x2="11.1741" y2="33.4394" gradientUnits="userSpaceOnUse">
<stop stop-color="#515BD4"/>
<stop offset="0.26" stop-color="#9510B8"/>
<stop offset="0.66" stop-color="#E51804"/>
<stop offset="1" stop-color="#FFBF00"/>
</linearGradient>
<linearGradient id="paint1_linear_195_28" x1="21.8835" y1="-1.94181" x2="11.1741" y2="33.4394" gradientUnits="userSpaceOnUse">
<stop stop-color="#515BD4"/>
<stop offset="0.26" stop-color="#9510B8"/>
<stop offset="0.66" stop-color="#E51804"/>
<stop offset="1" stop-color="#FFBF00"/>
</linearGradient>
<linearGradient id="paint2_linear_195_28" x1="21.8835" y1="-1.94181" x2="11.1741" y2="33.4394" gradientUnits="userSpaceOnUse">
<stop stop-color="#515BD4"/>
<stop offset="0.26" stop-color="#9510B8"/>
<stop offset="0.66" stop-color="#E51804"/>
<stop offset="1" stop-color="#FFBF00"/>
</linearGradient>
<clipPath id="clip0_195_28">
<rect width="36.648" height="36.648" fill="white" transform="translate(0.351959)"/>
</clipPath>
</defs>
</svg>
