<svg width="22" height="23" viewBox="0 0 22 23" fill="none" xmlns="http://www.w3.org/2000/svg">
<path d="M19.2333 22.073H18.9554C15.8244 21.7323 12.8162 20.6648 10.1708 18.9555C7.71331 17.3902 5.62676 15.3078 4.05668 12.8534C2.34345 10.2011 1.27573 7.18414 0.939181 4.04463C0.9007 3.67016 0.938693 3.29178 1.05086 2.93244C1.16302 2.5731 1.34702 2.24029 1.59168 1.95421C1.82965 1.66429 2.12337 1.42508 2.45546 1.25073C2.78755 1.07639 3.15125 0.970454 3.52501 0.939209H6.66668C7.34711 0.939895 8.00487 1.18386 8.52117 1.62704C9.03748 2.07022 9.3783 2.68341 9.4821 3.35588C9.59683 4.21968 9.81175 5.0672 10.1225 5.88129C10.3115 6.39288 10.3506 6.9478 10.235 7.48081C10.1194 8.01381 9.85399 8.50272 9.47001 8.89004L8.73293 9.62712C9.89344 11.4592 11.4501 13.0076 13.2883 14.1584L14.0254 13.4334C14.4128 13.0494 14.9017 12.784 15.4347 12.6684C15.9677 12.5528 16.5226 12.5918 17.0342 12.7809C17.8492 13.0888 18.6964 13.3036 19.5596 13.4213C20.2435 13.5241 20.8665 13.873 21.3114 14.4025C21.7564 14.932 21.9928 15.6057 21.9763 16.2971V19.1971C21.9763 19.9513 21.6775 20.6749 21.1453 21.2093C20.6131 21.7437 19.8909 22.0456 19.1367 22.0488L19.2333 22.073ZM6.66668 2.73963H3.77876C3.63697 2.749 3.49854 2.78703 3.37185 2.85141C3.24516 2.91579 3.13284 3.00519 3.04168 3.11421C2.95296 3.21633 2.88581 3.33534 2.84427 3.46409C2.80274 3.59284 2.78769 3.72866 2.80001 3.86338C3.09302 6.71115 4.04897 9.4507 5.59127 11.8625C7.01304 14.0939 8.90611 15.987 11.1375 17.4088C13.5509 18.9673 16.2934 19.9436 19.1488 20.2605C19.2973 20.2688 19.4459 20.2463 19.5852 20.1943C19.7246 20.1423 19.8516 20.062 19.9583 19.9584C20.1507 19.7611 20.259 19.4968 20.2604 19.2213V16.3334C20.2659 16.0791 20.1779 15.8316 20.0131 15.6379C19.8483 15.4441 19.6181 15.3176 19.3663 15.2821C18.368 15.1479 17.3874 14.9048 16.4421 14.5571C16.2559 14.4875 16.0537 14.4721 15.8591 14.5127C15.6644 14.5534 15.4853 14.6484 15.3425 14.7867L14.1342 15.995C13.9927 16.133 13.8104 16.2217 13.6145 16.2478C13.4185 16.2739 13.2194 16.2361 13.0467 16.14C10.4683 14.6831 8.33414 12.5531 6.8721 9.97754C6.77202 9.80592 6.73195 9.60586 6.75821 9.40894C6.78446 9.21202 6.87555 9.02944 7.0171 8.89004L8.22543 7.68171C8.364 7.54157 8.45933 7.36453 8.50004 7.1717C8.54075 6.97887 8.52512 6.7784 8.45501 6.59421C8.10604 5.64927 7.86288 4.66856 7.73001 3.67004C7.70004 3.41057 7.57454 3.17156 7.37797 2.99956C7.1814 2.82756 6.92783 2.7349 6.66668 2.73963Z" fill="#A8A8A8"/>
</svg>
