<svg width="25" height="25" viewBox="0 0 25 25" fill="none" xmlns="http://www.w3.org/2000/svg">
<path fill-rule="evenodd" clip-rule="evenodd" d="M11.4825 2.67645C7.05769 2.67645 3.4707 6.26344 3.4707 10.6882C3.4707 15.113 7.05769 18.7 11.4825 18.7C15.9073 18.7 19.4943 15.113 19.4943 10.6882C19.4943 6.26344 15.9073 2.67645 11.4825 2.67645ZM0.80011 10.6882C0.80011 4.78852 5.58277 0.00585938 11.4825 0.00585938C17.3822 0.00585938 22.1648 4.78852 22.1648 10.6882C22.1648 13.1568 21.3275 15.4298 19.9214 17.2387L24.4443 21.7617C24.9658 22.2832 24.9658 23.1286 24.4443 23.6501C23.9229 24.1716 23.0774 24.1716 22.5559 23.6501L18.033 19.1271C16.2241 20.5333 13.9511 21.3706 11.4825 21.3706C5.58277 21.3706 0.80011 16.5879 0.80011 10.6882Z" fill="white"/>
</svg>
