<svg width="38" height="37" viewBox="0 0 38 37" fill="none" xmlns="http://www.w3.org/2000/svg">
<circle cx="18.2313" cy="19.9519" r="16.0894" fill="#D3CECE"/>
<g clip-path="url(#clip0_195_26)">
<path fill-rule="evenodd" clip-rule="evenodd" d="M19.3926 28.8654H19.3969C25.3816 28.8654 30.2523 23.9961 30.2548 18.0109C30.2559 15.1107 29.1275 12.3835 27.0775 10.3318C25.0275 8.28017 22.3014 7.14959 19.4013 7.14845C13.4121 7.14845 8.54122 12.0175 8.53886 18.0022C8.53807 20.0531 9.11206 22.0506 10.1989 23.7789L10.4572 24.1894L9.36022 28.1949L13.4697 27.1172L13.8662 27.3525C15.5333 28.3415 17.4442 28.8646 19.3926 28.8654ZM23.1223 19.6744C23.4215 19.7833 25.0263 20.5727 25.3527 20.7361C25.4163 20.7679 25.4758 20.7966 25.531 20.8233C25.7588 20.9333 25.9127 21.0076 25.9783 21.1172C26.0599 21.2533 26.0599 21.9067 25.788 22.6689C25.5159 23.4311 24.2118 24.1268 23.5847 24.2205C23.0224 24.3045 22.3107 24.3395 21.5288 24.0912C21.0547 23.9408 20.4468 23.7401 19.668 23.4039C16.6088 22.0833 14.541 19.1194 14.1494 18.5581C14.1219 18.5186 14.1026 18.491 14.0919 18.4767L14.0891 18.4729C13.9157 18.2416 12.7591 16.6983 12.7591 15.1011C12.7591 13.598 13.4977 12.8101 13.8377 12.4475C13.8609 12.4226 13.8823 12.3998 13.9015 12.3789C14.2008 12.0523 14.5543 11.9706 14.772 11.9706C14.9896 11.9706 15.2074 11.9726 15.3976 11.982C15.421 11.9832 15.4454 11.9831 15.4706 11.9829C15.6608 11.9818 15.898 11.9804 16.1319 12.5422C16.2218 12.7581 16.3533 13.078 16.4919 13.4154C16.773 14.0994 17.0837 14.8556 17.1383 14.965C17.2199 15.1283 17.2743 15.319 17.1655 15.5367C17.1493 15.5692 17.1342 15.6 17.1199 15.6293C17.038 15.7963 16.978 15.9191 16.8391 16.0811C16.7847 16.1446 16.7285 16.2131 16.6723 16.2816C16.5599 16.4185 16.4474 16.5554 16.3495 16.6527C16.1861 16.8154 16.016 16.992 16.2064 17.3187C16.3968 17.6454 17.0519 18.7141 18.0223 19.5792C19.0655 20.5095 19.9722 20.9026 20.4317 21.1018C20.5213 21.1407 20.5939 21.1722 20.6472 21.1988C20.9736 21.3622 21.164 21.335 21.3544 21.1172C21.5448 20.8994 22.1703 20.1644 22.388 19.8378C22.6056 19.5111 22.8231 19.5655 23.1223 19.6744Z" fill="#25D366"/>
<path fill-rule="evenodd" clip-rule="evenodd" d="M19 36.648C29.1201 36.648 37.324 28.4441 37.324 18.324C37.324 8.20394 29.1201 0 19 0C8.87992 0 0.67598 8.20394 0.67598 18.324C0.67598 28.4441 8.87992 36.648 19 36.648ZM19.3968 4.94283C22.8914 4.94427 26.1714 6.30432 28.6378 8.77277C31.1043 11.2412 32.4618 14.5223 32.4604 18.0118C32.4575 25.2123 26.5968 31.0711 19.397 31.0711H19.3916C17.2052 31.0702 15.0569 30.5219 13.1489 29.4816L6.22366 31.2975L8.07697 24.5301C6.93379 22.5499 6.33232 20.303 6.33325 18.0013C6.33611 10.8009 12.1964 4.94283 19.3968 4.94283Z" fill="#25D366"/>
</g>
<defs>
<clipPath id="clip0_195_26">
<rect width="36.648" height="36.648" fill="white" transform="translate(0.67598)"/>
</clipPath>
</defs>
</svg>
