<svg width="37" height="37" viewBox="0 0 37 37" fill="none" xmlns="http://www.w3.org/2000/svg">
<circle cx="17.5553" cy="19.0213" r="16.0894" fill="#D3CECE"/>
<g clip-path="url(#clip0_195_27)">
<path d="M15.5131 14.7576L22.6969 18.8446L15.5131 22.9316V14.7576Z" fill="#FF0302"/>
<path fill-rule="evenodd" clip-rule="evenodd" d="M36.648 18.324C36.648 28.4441 28.4441 36.648 18.324 36.648C8.20394 36.648 0 28.4441 0 18.324C0 8.20394 8.20394 0 18.324 0C28.4441 0 36.648 8.20394 36.648 18.324ZM31.4923 12.1855C31.3369 11.6007 31.0307 11.067 30.6042 10.6378C30.1778 10.2086 29.6461 9.89898 29.0623 9.73984C26.9134 9.16201 18.324 9.16201 18.324 9.16201C18.324 9.16201 9.73464 9.16201 7.58573 9.73984C7.00199 9.89898 6.47028 10.2086 6.04382 10.6378C5.61736 11.067 5.31111 11.6007 5.15571 12.1855C4.58101 14.3438 4.58101 18.8446 4.58101 18.8446C4.58101 18.8446 4.58101 23.3454 5.15571 25.5037C5.31111 26.0885 5.61736 26.6221 6.04382 27.0513C6.47028 27.4805 7.00199 27.7902 7.58573 27.9493C9.73464 28.5272 18.324 28.5272 18.324 28.5272C18.324 28.5272 26.9134 28.5272 29.0623 27.9493C29.6461 27.7902 30.1778 27.4805 30.6042 27.0513C31.0307 26.6221 31.3369 26.0885 31.4923 25.5037C32.067 23.3454 32.067 18.8446 32.067 18.8446C32.067 18.8446 32.067 14.3438 31.4923 12.1855Z" fill="#FF0302"/>
</g>
<defs>
<clipPath id="clip0_195_27">
<rect width="36.648" height="36.648" fill="white"/>
</clipPath>
</defs>
</svg>
