<svg width="916" height="1061" viewBox="0 0 916 1061" fill="none" xmlns="http://www.w3.org/2000/svg">
<g filter="url(#filter0_f_299_128)">
<path fill-rule="evenodd" clip-rule="evenodd" d="M251.383 470.686C247.862 423.738 252.735 373.282 280.605 335.35C310.416 294.775 358.235 270.762 406.988 258.898C457.563 246.592 512.454 245.501 559.586 267.464C605.933 289.06 647.766 328.42 662.009 377.732C675.4 424.097 645.848 470.314 631.503 516.462C621.667 548.104 601.392 573.596 591.313 605.161C577.099 649.675 590.519 703.289 560.447 738.994C526.709 779.05 471.097 824.065 422.201 805.946C369.15 786.288 370.57 708.78 343.845 658.73C328.495 629.983 312.914 603.593 298.532 574.343C281.439 539.581 254.286 509.382 251.383 470.686Z" fill="#E1D5F1"/>
</g>
<defs>
<filter id="filter0_f_299_128" x="0.382935" y="0.175293" width="915.023" height="1059.9" filterUnits="userSpaceOnUse" color-interpolation-filters="sRGB">
<feFlood flood-opacity="0" result="BackgroundImageFix"/>
<feBlend mode="normal" in="SourceGraphic" in2="BackgroundImageFix" result="shape"/>
<feGaussianBlur stdDeviation="125" result="effect1_foregroundBlur_299_128"/>
</filter>
</defs>
</svg>
